<?xml version="1.0" encoding="utf-8"?>
<!-- Generator: Adobe Illustrator 24.3.0, SVG Export Plug-In . SVG Version: 6.00 Build 0)  -->
<svg version="1.1" xmlns="http://www.w3.org/2000/svg" xmlns:xlink="http://www.w3.org/1999/xlink" x="0px" y="0px"
	 viewBox="0 0 1920 1080" style="enable-background:new 0 0 1920 1080;" xml:space="preserve">
<style type="text/css">
	.st0{fill:none;stroke:#000000;stroke-width:80;stroke-miterlimit:10;}
	.st1{fill:none;stroke:#000000;stroke-width:50;stroke-miterlimit:10;}
	.st2{fill:none;stroke:#000000;stroke-width:76;stroke-miterlimit:10;}
	.st3{fill:none;stroke:#000000;stroke-width:85;stroke-miterlimit:10;}
</style>
<g id="base">
	<path d="M437.57,772.71L398.5,560.98h-20.24v211.73H302.9v-502h75.36c90.01,0,128.39,49.86,128.39,144.8
		c0,49.86-13.26,94.93-41.87,114.06l48.14,243.15H437.57z M378.26,492.68c10.47,0,24.42-1.37,35.59-10.93
		c11.17-9.56,20.24-28,20.24-63.52c0-35.52-9.07-54.64-20.24-64.2c-11.16-9.56-25.12-10.24-35.59-10.24V492.68z M717.87,638.33
		v41.96c-1.88,35.3-11.93,59.95-34.54,79.26c-11.31,9.99-27.01,14.66-47.73,14.66c-40.82,0-61.54-23.98-71.59-47.96
		c-5.65-13.99-9.42-29.97-10.05-47.96V495.12c1.88-35.3,12.56-61.28,35.17-81.26c10.68-9.99,26.38-14.65,47.1-14.65
		c40.82,0,61.54,23.98,71.59,47.29c5.65,13.99,9.42,29.31,10.05,46.63v105.9H613v79.26c0.63,13.99,4.39,23.98,10.05,31.31
		c3.14,3.33,7.53,5.33,13.18,5.33c11.93,0,17.59-7.99,20.1-17.99c1.89-5.33,2.51-11.32,2.51-18.65v-39.96H717.87z M613,546.41h45.84
		v-51.29c0-13.98-2.51-23.98-8.79-31.97c-3.14-3.33-8.16-5.33-13.82-5.33c-11.93,0-16.95,8.66-20.1,18.65
		c-1.88,5.33-2.51,11.32-3.14,18.65V546.41z M810.31,773.71l-70.48-374h77.62l26.13,216.74l3.17,23.93h6.34l3.17-23.93l26.13-216.74
		H960l-70.49,374H810.31z M1163.87,637.68v41.44c-1.88,34.86-11.93,59.19-34.54,78.26c-11.31,9.87-27.01,14.47-47.73,14.47
		c-40.82,0-61.54-23.68-71.59-47.36c-5.65-13.81-9.42-29.6-10.05-47.36V496.27c1.88-34.86,12.56-60.51,35.17-80.24
		c10.68-9.87,26.38-14.47,47.1-14.47c40.82,0,61.54,23.68,71.59,46.7c5.65,13.81,9.42,28.94,10.05,46.04v104.57H1059v78.27
		c0.63,13.81,4.39,23.68,10.05,30.91c3.14,3.29,7.53,5.26,13.18,5.26c11.93,0,17.59-7.89,20.1-17.76
		c1.89-5.26,2.51-11.18,2.51-18.42v-39.46H1163.87z M1059,546.91h45.84v-50.64c0-13.81-2.51-23.68-8.79-31.57
		c-3.14-3.29-8.16-5.26-13.82-5.26c-11.93,0-16.95,8.55-20.1,18.42c-1.88,5.26-2.51,11.18-3.14,18.42V546.91z M1353.19,475.78
		c-5.28-2.01-11.15-2.68-16.43-2.68c-9.39,0-20.54,1.34-29.92,11.39c-11.15,10.73-12.91,22.12-12.91,33.52v254.7h-59.27V406.07
		h59.27v40.88c0.58-4.69,4.69-16.09,14.08-26.81c9.39-10.05,23.48-19.44,45.19-19.44V475.78z M1471.11,314.71v90.79h35.24v61.19
		h-35.24V649.6c0,11.43,0,26.23,2.04,38.33s6.13,22.19,14.29,22.19c4.09,0,9.2-0.67,12.77-1.34c2.04-0.67,4.09-0.67,6.13-1.35V774
		c-2.56,0.67-5.11,2.02-7.66,2.69c-5.11,1.34-11.75,2.02-19.92,2.02c-30.13,0-44.43-20.17-51.58-45.73s-7.66-56.49-7.66-78V466.68
		h-26.05v-61.19h26.05v-90.79H1471.11z M636,314.66l814,0.34v28l-814-0.25V314.66z M537.45,328.61L645,284.19v89.03L537.45,328.61z"
		/>
	<path class="st0" d="M450,482"/>
</g>
<!-- <g id="レイヤー_2">
	<polyline class="st1" points="302.9,253.64 302.9,752.64 352.99,752.64 352.99,253.64 396.74,253.64 396.74,318.73 434.08,318.73
		434.08,253.64 484.24,253.64 484.24,364.04 418.9,364.04 418.9,411.64 512.93,411.64 512.93,463.2 423.99,463.2 423.99,503.14
		489.7,503.14 489.7,535.64 378.26,535.64 378.26,482.26 406.17,482.26 456.1,752.64 488.1,750.93 453.9,555.64 	"/>
	<polyline class="st2" points="610.48,573.15 690.69,573.15 690.69,468.95 652.34,430.6 610.48,430.6 581.14,459.93 581.14,524.95
		581.14,628.24 581.14,711.95 612.01,742.82 656.32,742.82 680.04,719.1 679.04,637.07 	"/>
	<polyline class="st3" points="772.31,386.21 826.51,777.5 863.31,777.5 919.56,386.21 	"/>
	<polyline class="st2" points="1058.48,572.15 1138.69,572.15 1138.69,467.95 1100.34,429.6 1058.48,429.6 1029.14,458.93
		1029.14,523.95 1029.14,627.24 1029.14,710.95 1060.01,741.82 1104.32,741.82 1128.04,718.1 1127.04,636.07 	"/>
	<polyline class="st0" points="1253.67,406.07 1253.67,771.86 1270.33,771.86 1270.33,457.82 1309.92,457.82 1327.87,439.87
		1354.19,439.87 	"/>
	<polyline class="st0" points="1393.48,430.6 1506.35,430.6 1450,429.6 1450,315 1450,717.83 1450,742.82 1507.35,742.82 	"/>
	<polyline class="st0" points="1497.42,315 645,315 645,270.71 545.33,314.66 645,373.22 637,328.71 	"/>
</g> -->
</svg>
