<?xml version="1.0" encoding="utf-8"?>
<!-- Generator: Adobe Illustrator 24.3.0, SVG Export Plug-In . SVG Version: 6.00 Build 0)  -->
<svg version="1.1" xmlns="http://www.w3.org/2000/svg" xmlns:xlink="http://www.w3.org/1999/xlink" x="0px" y="0px"
	 viewBox="0 0 1920 1080" style="enable-background:new 0 0 1920 1080;" xml:space="preserve">
<style type="text/css">
	.st0{fill:none;stroke:#FF0000;stroke-width:86;stroke-miterlimit:10;}
</style>
<g id="base">
	<path  d="M569.86,723.77l-30.53-151.86c-0.81-4.02-4.7-6.95-9.25-6.95l0,0c-5.19,0-9.4,3.78-9.4,8.45v148.86
		c0,4.67-4.21,8.45-9.4,8.45h-45.46c-5.19,0-9.4-3.78-9.4-8.45v-376.1c0-4.67,4.21-8.45,9.4-8.45h54.86
		c76.77,0,109.49,39.04,109.49,113.36c0,36.59-9.94,69.9-31.28,86.25c-2.6,1.99-4.01,4.94-3.36,7.95l37.83,175.38
		c1.12,5.21-3.32,10.06-9.23,10.06h-45.01C574.56,730.72,570.67,727.79,569.86,723.77z M520.67,502.41c0,5.25,5.26,9.21,11.02,8.35
		c6.5-0.97,13.38-3.14,19.33-7.82c9.52-7.48,17.26-21.92,17.26-49.72c0-27.81-7.74-42.78-17.26-50.26c-6.02-4.74-13-6.69-19.57-7.49
		c-5.69-0.69-10.78,3.22-10.78,8.38V502.41L520.67,502.41z M800.06,636.09v32.01c-1.52,26.92-9.65,45.72-27.93,60.45
		c-9.14,7.62-21.84,11.18-38.59,11.18c-33.01,0-49.76-18.29-57.89-36.58c-4.57-10.67-7.62-22.86-8.12-36.58v-139.7
		c1.52-26.92,10.15-46.73,28.44-61.97c8.63-7.62,21.33-11.17,38.08-11.17c33.01,0,49.76,18.29,57.89,36.07
		c4.57,10.67,7.62,22.35,8.12,35.56v80.77h-84.8v60.45c0.51,10.67,3.55,18.29,8.13,23.88c2.54,2.54,6.09,4.06,10.66,4.06
		c9.65,0,14.22-6.1,16.25-13.72c1.53-4.06,2.03-8.64,2.03-14.22V636.1h47.73V636.09z M715.26,565.98h37.07v-39.12
		c0-10.66-2.03-18.29-7.11-24.38c-2.54-2.54-6.6-4.06-11.17-4.06c-9.65,0-13.71,6.6-16.25,14.22c-1.52,4.06-2.03,8.64-2.54,14.22
		L715.26,565.98L715.26,565.98z M877.75,732.72l-56.33-289h62.03l20.89,167.48l2.53,18.49h5.07l2.53-18.49l20.88-167.48h62.03
		l-56.34,289H877.75z M1162.53,628v32.34c-1.65,27.2-10.48,46.2-30.34,61.08c-9.93,7.7-23.73,11.3-41.93,11.3
		c-35.86,0-54.07-18.48-62.9-36.96c-4.96-10.78-8.28-23.1-8.83-36.96V517.64c1.65-27.21,11.03-47.23,30.9-62.62
		c9.38-7.7,23.17-11.29,41.38-11.29c35.86,0,54.07,18.48,62.9,36.44c4.96,10.78,8.28,22.59,8.83,35.93v81.62h-92.14v61.09
		c0.55,10.78,3.86,18.48,8.83,24.13c2.76,2.57,6.62,4.11,11.58,4.11c10.48,0,15.45-6.16,17.66-13.86c1.66-4.1,2.21-8.73,2.21-14.37
		v-30.8h51.85V628z M1070.39,557.16h40.28v-39.53c0-10.78-2.21-18.48-7.72-24.64c-2.76-2.57-7.17-4.11-12.14-4.11
		c-10.48,0-14.89,6.67-17.66,14.37c-1.65,4.11-2.2,8.73-2.76,14.37V557.16z M1324.53,499.05c-4.92-1.59-10.38-2.12-15.3-2.12
		c-8.74,0-19.12,1.06-27.86,9.01c-10.38,8.48-12.02,17.48-12.02,26.49v201.29h-55.18V443.96h55.18v32.31
		c0.54-3.71,4.36-12.71,13.11-21.19c8.74-7.95,21.86-15.36,42.07-15.36L1324.53,499.05L1324.53,499.05z M1429.11,377.72v71.22h34.3
		v48h-34.3v143.49c0,8.97,0,20.57,1.99,30.07s5.97,17.41,13.91,17.41c3.98,0,8.95-0.53,12.43-1.06c1.99-0.53,3.98-0.53,5.97-1.06
		v52.22c-2.49,0.53-4.97,1.58-7.46,2.11c-4.98,1.06-11.43,1.58-19.39,1.58c-29.32,0-43.24-15.83-50.2-35.87
		c-6.96-20.05-7.46-44.32-7.46-61.19v-147.7h-25.35v-48h25.35v-71.22H1429.11z M1144.3,377.38h250.23v22.01H1144.3V377.38z
		 M912.41,377.68h169.98h80.25v22.01H912.41V377.68z M785.41,377.68h250.23v22.01H785.41V377.68z M812.53,400.19h-84.24v12.53
		l1.1,3.65c1.53,5.05-4.02,9.3-8.5,6.51l-87.36-37.14l94.76-38.02v16.16v13.5l84.24-0.97V400.19z"/>
</g>
</svg>
