<?xml version="1.0" encoding="utf-8"?>
<!-- Generator: Adobe Illustrator 24.3.0, SVG Export Plug-In . SVG Version: 6.00 Build 0)  -->
<svg version="1.1" id="レイヤー_1" xmlns="http://www.w3.org/2000/svg" xmlns:xlink="http://www.w3.org/1999/xlink" x="0px"
	 y="0px" viewBox="0 0 1920 1080" style="enable-background:new 0 0 1920 1080;" xml:space="preserve">
<style type="text/css">
	.st0{fill:none;}
</style>
<rect x="8.54" y="-9.08" class="st0" width="1911.46" height="907.69"/>
<g>
	<path d="M337.33,729.05L306.8,577.19c-0.81-4.02-4.7-6.95-9.25-6.95l0,0c-5.19,0-9.4,3.78-9.4,8.45v148.86
		c0,4.67-4.21,8.45-9.4,8.45h-45.46c-5.19,0-9.4-3.78-9.4-8.45v-376.1c0-4.67,4.21-8.45,9.4-8.45h54.86
		c76.77,0,109.49,39.04,109.49,113.36c0,36.59-9.94,69.9-31.28,86.25c-2.6,1.99-4.01,4.94-3.36,7.95l37.83,175.38
		c1.12,5.21-3.32,10.06-9.23,10.06h-45.01C342.03,736,338.14,733.07,337.33,729.05z M288.14,507.69c0,5.25,5.26,9.21,11.02,8.35
		c6.5-0.97,13.38-3.14,19.33-7.82c9.52-7.48,17.26-21.92,17.26-49.72c0-27.81-7.74-42.78-17.26-50.26c-6.02-4.74-13-6.69-19.57-7.49
		c-5.69-0.69-10.78,3.22-10.78,8.38V507.69z"/>
</g>
</svg>
